<svg id="Capa_1" enable-background="new 0 0 507.936 507.936" height="512" viewBox="0 0 507.936 507.936" width="512" xmlns="http://www.w3.org/2000/svg"><g><g><path d="m223.707 195.12c.037 10.076-1.396 20.409-3.58 30h-89.43v30h81.51c-2.603 9.809-4.618 20.084-6.26 29.86h-48.26v30h44.32c-3.483 42.029-2.133 39.899-2 61.84h-110.72c-7.828-45.163-21.794-87.987-29.02-133.59-27.331-143.94 124.968-194.121 159.74-78.11h-89.31v30z"/><path d="m201.465 402.967h-111.569c-3.067 26.39-.861 66.554 19.811 88.213 18.849 21.709 59.652 22.897 78.064.201 24.624-31.14 15.485-73.958 13.694-88.414z"/></g><g><path d="m284.229 94.233c-.037 10.076 1.396 20.409 3.58 30h89.43v30h-81.51c2.603 9.809 4.618 20.084 6.26 29.86h48.26v30h-44.32c3.483 42.029 2.133 39.899 2 61.84h110.72c7.828-45.163 21.794-87.987 29.02-133.59 27.331-143.94-124.968-194.121-159.74-78.11h89.31v30z"/><path d="m306.472 302.08h111.568c3.067 26.39.861 66.554-19.811 88.213-18.849 21.709-59.652 22.897-78.064.201-24.623-31.14-15.485-73.958-13.693-88.414z"/></g></g></svg>